<mxfile host="app.diagrams.net" agent="Mozilla/5.0 (Windows NT 10.0; Win64; x64) AppleWebKit/537.36 (KHTML, like Gecko) Chrome/128.0.0.0 Safari/537.36 Edg/128.0.0.0" version="24.7.7">
  <diagram name="Página-1" id="Yg822-MPr7fxRKDWU36j">
    <mxGraphModel dx="2026" dy="1197" grid="0" gridSize="10" guides="1" tooltips="1" connect="1" arrows="1" fold="1" page="0" pageScale="1" pageWidth="827" pageHeight="1169" math="0" shadow="0">
      <root>
        <mxCell id="0" />
        <mxCell id="1" parent="0" />
        <mxCell id="ZzcWTwA__7tWX_Zm0C-q-1" value="Producto" style="swimlane;fontStyle=1;align=center;verticalAlign=top;childLayout=stackLayout;horizontal=1;startSize=26;horizontalStack=0;resizeParent=1;resizeParentMax=0;resizeLast=0;collapsible=1;marginBottom=0;whiteSpace=wrap;html=1;" parent="1" vertex="1">
          <mxGeometry x="240" y="-144" width="160" height="173" as="geometry" />
        </mxCell>
        <mxCell id="ZzcWTwA__7tWX_Zm0C-q-2" value="+Nombre&lt;div&gt;+Descripción&lt;/div&gt;&lt;div&gt;-Precio&lt;/div&gt;&lt;div&gt;-Stock&lt;/div&gt;&lt;div&gt;-Categoría&lt;/div&gt;" style="text;strokeColor=none;fillColor=none;align=left;verticalAlign=top;spacingLeft=4;spacingRight=4;overflow=hidden;rotatable=0;points=[[0,0.5],[1,0.5]];portConstraint=eastwest;whiteSpace=wrap;html=1;" parent="ZzcWTwA__7tWX_Zm0C-q-1" vertex="1">
          <mxGeometry y="26" width="160" height="85" as="geometry" />
        </mxCell>
        <mxCell id="ZzcWTwA__7tWX_Zm0C-q-3" value="" style="line;strokeWidth=1;fillColor=none;align=left;verticalAlign=middle;spacingTop=-1;spacingLeft=3;spacingRight=3;rotatable=0;labelPosition=right;points=[];portConstraint=eastwest;strokeColor=inherit;" parent="ZzcWTwA__7tWX_Zm0C-q-1" vertex="1">
          <mxGeometry y="111" width="160" height="8" as="geometry" />
        </mxCell>
        <mxCell id="ZzcWTwA__7tWX_Zm0C-q-4" value="+agregar_stock()&lt;div&gt;+eliminar_stock()&lt;/div&gt;&lt;div&gt;+calcular_valor()&lt;/div&gt;" style="text;strokeColor=none;fillColor=none;align=left;verticalAlign=top;spacingLeft=4;spacingRight=4;overflow=hidden;rotatable=0;points=[[0,0.5],[1,0.5]];portConstraint=eastwest;whiteSpace=wrap;html=1;" parent="ZzcWTwA__7tWX_Zm0C-q-1" vertex="1">
          <mxGeometry y="119" width="160" height="54" as="geometry" />
        </mxCell>
        <mxCell id="mEdB0pq8nx6beGlpapeq-4" value="Categoría" style="swimlane;fontStyle=1;align=center;verticalAlign=top;childLayout=stackLayout;horizontal=1;startSize=26;horizontalStack=0;resizeParent=1;resizeParentMax=0;resizeLast=0;collapsible=1;marginBottom=0;whiteSpace=wrap;html=1;" parent="1" vertex="1">
          <mxGeometry x="-26" y="-115" width="160" height="122" as="geometry" />
        </mxCell>
        <mxCell id="mEdB0pq8nx6beGlpapeq-5" value="+Nombre&lt;div&gt;+Descripción&lt;/div&gt;" style="text;strokeColor=none;fillColor=none;align=left;verticalAlign=top;spacingLeft=4;spacingRight=4;overflow=hidden;rotatable=0;points=[[0,0.5],[1,0.5]];portConstraint=eastwest;whiteSpace=wrap;html=1;" parent="mEdB0pq8nx6beGlpapeq-4" vertex="1">
          <mxGeometry y="26" width="160" height="40" as="geometry" />
        </mxCell>
        <mxCell id="mEdB0pq8nx6beGlpapeq-6" value="" style="line;strokeWidth=1;fillColor=none;align=left;verticalAlign=middle;spacingTop=-1;spacingLeft=3;spacingRight=3;rotatable=0;labelPosition=right;points=[];portConstraint=eastwest;strokeColor=inherit;" parent="mEdB0pq8nx6beGlpapeq-4" vertex="1">
          <mxGeometry y="66" width="160" height="8" as="geometry" />
        </mxCell>
        <mxCell id="mEdB0pq8nx6beGlpapeq-7" value="+agregar_producto()&lt;div&gt;+eliminar_producto()&lt;/div&gt;" style="text;strokeColor=none;fillColor=none;align=left;verticalAlign=top;spacingLeft=4;spacingRight=4;overflow=hidden;rotatable=0;points=[[0,0.5],[1,0.5]];portConstraint=eastwest;whiteSpace=wrap;html=1;" parent="mEdB0pq8nx6beGlpapeq-4" vertex="1">
          <mxGeometry y="74" width="160" height="48" as="geometry" />
        </mxCell>
        <mxCell id="Iz3T1UDSBfPyMtOGYNZq-1" value="Proveedor" style="swimlane;fontStyle=1;align=center;verticalAlign=top;childLayout=stackLayout;horizontal=1;startSize=26;horizontalStack=0;resizeParent=1;resizeParentMax=0;resizeLast=0;collapsible=1;marginBottom=0;whiteSpace=wrap;html=1;" parent="1" vertex="1">
          <mxGeometry x="524" y="-135.5" width="160" height="146" as="geometry" />
        </mxCell>
        <mxCell id="Iz3T1UDSBfPyMtOGYNZq-2" value="+Nombre&lt;div&gt;+Dirección&lt;/div&gt;&lt;div&gt;+Teléfono&lt;/div&gt;&lt;div&gt;+ListaDeProductos&lt;/div&gt;" style="text;strokeColor=none;fillColor=none;align=left;verticalAlign=top;spacingLeft=4;spacingRight=4;overflow=hidden;rotatable=0;points=[[0,0.5],[1,0.5]];portConstraint=eastwest;whiteSpace=wrap;html=1;" parent="Iz3T1UDSBfPyMtOGYNZq-1" vertex="1">
          <mxGeometry y="26" width="160" height="64" as="geometry" />
        </mxCell>
        <mxCell id="Iz3T1UDSBfPyMtOGYNZq-3" value="" style="line;strokeWidth=1;fillColor=none;align=left;verticalAlign=middle;spacingTop=-1;spacingLeft=3;spacingRight=3;rotatable=0;labelPosition=right;points=[];portConstraint=eastwest;strokeColor=inherit;" parent="Iz3T1UDSBfPyMtOGYNZq-1" vertex="1">
          <mxGeometry y="90" width="160" height="8" as="geometry" />
        </mxCell>
        <mxCell id="Iz3T1UDSBfPyMtOGYNZq-4" value="+agregar_producto()&lt;div&gt;+eliminar_producto()&lt;/div&gt;" style="text;strokeColor=none;fillColor=none;align=left;verticalAlign=top;spacingLeft=4;spacingRight=4;overflow=hidden;rotatable=0;points=[[0,0.5],[1,0.5]];portConstraint=eastwest;whiteSpace=wrap;html=1;" parent="Iz3T1UDSBfPyMtOGYNZq-1" vertex="1">
          <mxGeometry y="98" width="160" height="48" as="geometry" />
        </mxCell>
        <mxCell id="Iz3T1UDSBfPyMtOGYNZq-13" value="Bodega" style="swimlane;fontStyle=1;align=center;verticalAlign=top;childLayout=stackLayout;horizontal=1;startSize=26;horizontalStack=0;resizeParent=1;resizeParentMax=0;resizeLast=0;collapsible=1;marginBottom=0;whiteSpace=wrap;html=1;" parent="1" vertex="1">
          <mxGeometry x="240" y="-396" width="160" height="147" as="geometry" />
        </mxCell>
        <mxCell id="Iz3T1UDSBfPyMtOGYNZq-14" value="+Nombre&lt;div&gt;+Dirección&lt;/div&gt;&lt;div&gt;+CapacidadMaxima&lt;/div&gt;" style="text;strokeColor=none;fillColor=none;align=left;verticalAlign=top;spacingLeft=4;spacingRight=4;overflow=hidden;rotatable=0;points=[[0,0.5],[1,0.5]];portConstraint=eastwest;whiteSpace=wrap;html=1;" parent="Iz3T1UDSBfPyMtOGYNZq-13" vertex="1">
          <mxGeometry y="26" width="160" height="55" as="geometry" />
        </mxCell>
        <mxCell id="Iz3T1UDSBfPyMtOGYNZq-15" value="" style="line;strokeWidth=1;fillColor=none;align=left;verticalAlign=middle;spacingTop=-1;spacingLeft=3;spacingRight=3;rotatable=0;labelPosition=right;points=[];portConstraint=eastwest;strokeColor=inherit;" parent="Iz3T1UDSBfPyMtOGYNZq-13" vertex="1">
          <mxGeometry y="81" width="160" height="8" as="geometry" />
        </mxCell>
        <mxCell id="Iz3T1UDSBfPyMtOGYNZq-16" value="+disponibilidad()&lt;div&gt;+agregar_producto()&lt;/div&gt;&lt;div&gt;+eliminar producto()&lt;/div&gt;&lt;div&gt;&lt;br&gt;&lt;/div&gt;" style="text;strokeColor=none;fillColor=none;align=left;verticalAlign=top;spacingLeft=4;spacingRight=4;overflow=hidden;rotatable=0;points=[[0,0.5],[1,0.5]];portConstraint=eastwest;whiteSpace=wrap;html=1;" parent="Iz3T1UDSBfPyMtOGYNZq-13" vertex="1">
          <mxGeometry y="89" width="160" height="58" as="geometry" />
        </mxCell>
        <mxCell id="Iz3T1UDSBfPyMtOGYNZq-17" value="" style="endArrow=diamondThin;endFill=1;endSize=24;html=1;rounded=0;fontSize=12;curved=1;exitX=0.488;exitY=1.041;exitDx=0;exitDy=0;exitPerimeter=0;entryX=0.5;entryY=0;entryDx=0;entryDy=0;" parent="1" edge="1">
          <mxGeometry width="160" relative="1" as="geometry">
            <mxPoint x="314.99999999999994" y="-249.00199999999995" as="sourcePoint" />
            <mxPoint x="316.92" y="-146.38" as="targetPoint" />
          </mxGeometry>
        </mxCell>
        <mxCell id="Iz3T1UDSBfPyMtOGYNZq-18" value="1" style="endArrow=open;html=1;endSize=12;startArrow=diamondThin;startSize=14;startFill=1;edgeStyle=orthogonalEdgeStyle;align=left;verticalAlign=bottom;rounded=0;fontSize=12;curved=1;" parent="1" edge="1">
          <mxGeometry x="-1" y="3" relative="1" as="geometry">
            <mxPoint x="403" y="-61" as="sourcePoint" />
            <mxPoint x="519" y="-61" as="targetPoint" />
          </mxGeometry>
        </mxCell>
        <mxCell id="Iz3T1UDSBfPyMtOGYNZq-19" value="1" style="endArrow=open;html=1;endSize=12;startArrow=diamondThin;startSize=14;startFill=1;edgeStyle=orthogonalEdgeStyle;align=left;verticalAlign=bottom;rounded=0;fontSize=12;curved=1;exitX=1;exitY=0.5;exitDx=0;exitDy=0;" parent="1" source="mEdB0pq8nx6beGlpapeq-5" edge="1">
          <mxGeometry x="-1" y="3" relative="1" as="geometry">
            <mxPoint x="160" y="-171" as="sourcePoint" />
            <mxPoint x="238" y="-69" as="targetPoint" />
          </mxGeometry>
        </mxCell>
      </root>
    </mxGraphModel>
  </diagram>
</mxfile>
